<svg width="36" height="36" viewBox="0 0 36 36" fill="none" xmlns="http://www.w3.org/2000/svg">
<g id="Vector">
<path id="Vector_2" fill-rule="evenodd" clip-rule="evenodd" d="M7.73755 0.557273C14.4409 -0.185758 21.2059 -0.185758 27.9092 0.557273C31.6207 0.973273 34.6151 3.89611 35.0506 7.62061C35.8455 14.4188 35.8455 21.2865 35.0506 28.0848C34.8302 29.8946 34.005 31.5768 32.7088 32.8589C31.4126 34.141 29.7213 34.9476 27.9092 35.1481C21.206 35.8934 14.4408 35.8934 7.73755 35.1481C5.92546 34.9476 4.23422 34.141 2.938 32.8589C1.64178 31.5768 0.816593 29.8946 0.596217 28.0848C-0.198739 21.2873 -0.198739 14.4203 0.596217 7.62277C0.816497 5.81332 1.64137 4.13129 2.93716 2.84927C4.23294 1.56725 5.92369 0.760385 7.73538 0.559439L7.73755 0.557273ZM17.8234 7.03561C18.2544 7.03561 18.6677 7.20681 18.9724 7.51156C19.2772 7.8163 19.4484 8.22963 19.4484 8.66061V16.2288H27.0166C27.4475 16.2288 27.8609 16.4 28.1656 16.7047C28.4703 17.0095 28.6416 17.4228 28.6416 17.8538C28.6416 18.2847 28.4703 18.6981 28.1656 19.0028C27.8609 19.3076 27.4475 19.4788 27.0166 19.4788H19.4484V27.0469C19.4484 27.4779 19.2772 27.8912 18.9724 28.196C18.6677 28.5007 18.2544 28.6719 17.8234 28.6719C17.3924 28.6719 16.9791 28.5007 16.6743 28.196C16.3696 27.8912 16.1984 27.4779 16.1984 27.0469V19.4788H8.63022C8.19924 19.4788 7.78592 19.3076 7.48117 19.0028C7.17642 18.6981 7.00522 18.2847 7.00522 17.8538C7.00522 17.4228 7.17642 17.0095 7.48117 16.7047C7.78592 16.4 8.19924 16.2288 8.63022 16.2288H16.1984V8.66061C16.1984 8.22963 16.3696 7.8163 16.6743 7.51156C16.9791 7.20681 17.3924 7.03561 17.8234 7.03561Z" fill="url(#paint0_linear_749_2731)"/>
</g>
<defs>
<linearGradient id="paint0_linear_749_2731" x1="-3.67651" y1="4.35378" x2="35.8235" y2="26.8538" gradientUnits="userSpaceOnUse">
<stop stop-color="#01AEE7"/>
<stop offset="1" stop-color="#1D77E5"/>
</linearGradient>
</defs>
</svg>
