<svg width="24" height="24" viewBox="0 0 24 24" fill="none" xmlns="http://www.w3.org/2000/svg">
<path d="M15 22.75H9C3.57 22.75 1.25 20.43 1.25 15V9C1.25 3.57 3.57 1.25 9 1.25H15C20.43 1.25 22.75 3.57 22.75 9V15C22.75 20.43 20.43 22.75 15 22.75ZM9 2.75C4.39 2.75 2.75 4.39 2.75 9V15C2.75 19.61 4.39 21.25 9 21.25H15C19.61 21.25 21.25 19.61 21.25 15V9C21.25 4.39 19.61 2.75 15 2.75H9Z" fill="#9197B3"/>
<path d="M13.8467 12.2667C13.9467 12.3133 14.06 12.3333 14.1667 12.3333C14.3867 12.3333 14.5933 12.2467 14.7533 12.0933L16.2067 10.6667H16.8333C17.8467 10.6667 18.6667 9.84666 18.6667 8.83333V7.16666C18.6667 6.15333 17.8467 5.33333 16.8333 5.33333H13.8333C12.82 5.33333 12 6.15333 12 7.16666V8.83333C12 9.67333 12.5667 10.38 13.3333 10.6V11.5C13.3333 11.8333 13.54 12.1333 13.8467 12.2667ZM13 7.16666C13 6.70666 13.3733 6.33333 13.8333 6.33333H16.8333C17.2933 6.33333 17.6667 6.70666 17.6667 7.16666V8.83333C17.6667 9.29333 17.2933 9.66666 16.8333 9.66666H15.7933L14.3333 11.1V9.66666H13.8333C13.3733 9.66666 13 9.29333 13 8.83333V7.16666ZM9.33334 13C8.04667 13 7.00001 11.9533 7.00001 10.6667C7.00001 9.37999 8.04667 8.33333 9.33334 8.33333C10.62 8.33333 11.6667 9.37999 11.6667 10.6667C11.6667 11.9533 10.62 13 9.33334 13ZM9.33334 9.33333C8.60001 9.33333 8.00001 9.93333 8.00001 10.6667C8.00001 11.4 8.60001 12 9.33334 12C10.0667 12 10.6667 11.4 10.6667 10.6667C10.6667 9.93333 10.0667 9.33333 9.33334 9.33333ZM9.33334 18.6667C7.96001 18.6667 6.90668 18.2933 6.20001 17.5533C5.30934 16.6173 5.33134 15.4373 5.33334 15.3153V15.3067C5.33334 14.5933 5.93334 14 6.66668 14H12C12.7333 14 13.3333 14.6 13.3333 15.3333L13.334 15.3373C13.336 15.422 13.364 16.6107 12.4673 17.5533C11.76 18.2933 10.7067 18.6667 9.33334 18.6667ZM6.66668 15C6.48001 15 6.33334 15.1467 6.33334 15.3333V15.3367C6.33334 15.4 6.32201 16.2353 6.93334 16.8733C7.44001 17.4 8.24668 17.6667 9.33334 17.6667C10.42 17.6667 11.2333 17.3933 11.74 16.86C12.3487 16.2253 12.3347 15.3987 12.3333 15.3547V15.3533C12.3333 15.1467 12.18 14.9933 12 14.9933H6.66668V15Z" fill="#9197B3"/>
</svg>
