<svg width="41" height="40" viewBox="0 0 41 40" fill="none" xmlns="http://www.w3.org/2000/svg">
<g id="Social">
<path id="Vector" fill-rule="evenodd" clip-rule="evenodd" d="M20.5099 8C13.8687 8 8.5 13.4083 8.5 20.0992C8.5 25.4475 11.9399 29.9748 16.7121 31.5771C17.3087 31.6976 17.5272 31.3168 17.5272 30.9965C17.5272 30.716 17.5076 29.7545 17.5076 28.7527C14.1667 29.474 13.471 27.3104 13.471 27.3104C12.9341 25.9082 12.1386 25.5478 12.1386 25.5478C11.0451 24.8066 12.2182 24.8066 12.2182 24.8066C13.4312 24.8868 14.0676 26.0486 14.0676 26.0486C15.1412 27.8913 16.8711 27.3707 17.5671 27.0501C17.6664 26.2688 17.9847 25.728 18.3228 25.4276C15.6582 25.1471 12.8547 24.1055 12.8547 19.458C12.8547 18.1359 13.3316 17.0543 14.0873 16.213C13.9681 15.9126 13.5504 14.6704 14.2068 13.0079C14.2068 13.0079 15.2208 12.6873 17.5073 14.2498C18.4863 13.985 19.4958 13.8502 20.5099 13.8491C21.524 13.8491 22.5577 13.9895 23.5123 14.2498C25.799 12.6873 26.8131 13.0079 26.8131 13.0079C27.4695 14.6704 27.0515 15.9126 26.9323 16.213C27.7079 17.0543 28.1652 18.1359 28.1652 19.458C28.1652 24.1055 25.3617 25.1269 22.6772 25.4276C23.1148 25.8081 23.4924 26.5292 23.4924 27.6711C23.4924 29.2936 23.4727 30.5957 23.4727 30.9962C23.4727 31.3168 23.6915 31.6976 24.2879 31.5774C29.06 29.9745 32.4999 25.4475 32.4999 20.0992C32.5196 13.4083 27.1312 8 20.5099 8Z" fill="#24292F"/>
</g>
</svg>
