<svg width="40" height="39" viewBox="0 0 40 39" fill="none" xmlns="http://www.w3.org/2000/svg">
<g id="Group">
<path id="Vector" d="M10.5937 33.7166C13.2739 35.8279 16.5879 36.9736 19.9999 36.9685C23.5501 36.9685 26.8172 35.7537 29.4062 33.7166M15.5208 7.17932C9.29561 9.09193 4.77075 14.8871 4.77075 21.7393C4.77075 23.4638 5.05742 25.1211 5.58596 26.6664M24.4791 7.17932C30.7042 9.09193 35.2291 14.8871 35.2291 21.7393C35.2291 23.4638 34.9424 25.1211 34.4139 26.6664" stroke="#00AC4F" stroke-width="4"/>
<path id="Vector_2" d="M37.0208 30.6976C37.0208 31.8998 36.5478 32.991 35.7774 33.7954C35.0579 34.5471 34.0992 35.0248 33.0659 35.1466C32.0326 35.2684 30.9892 35.0266 30.1147 34.4629C29.2402 33.8991 28.5892 33.0485 28.2736 32.0571C27.9579 31.0657 27.9972 29.9953 28.3848 29.0297C28.7724 28.0641 29.484 27.2636 30.3975 26.7655C31.311 26.2675 32.3694 26.103 33.391 26.3003C34.4126 26.4976 35.3336 27.0444 35.996 27.8468C36.6583 28.6492 37.0207 29.6572 37.0208 30.6976ZM11.9375 30.6976C11.9375 31.8998 11.4645 32.991 10.694 33.7954C9.97459 34.5471 9.01592 35.0248 7.98261 35.1466C6.9493 35.2684 5.90583 35.0266 5.03134 34.4629C4.15684 33.8991 3.50589 33.0485 3.19023 32.0571C2.87458 31.0657 2.91391 29.9953 3.30148 29.0297C3.68906 28.0641 4.40069 27.2636 5.3142 26.7655C6.22771 26.2675 7.28611 26.103 8.30769 26.3003C9.32927 26.4976 10.2503 27.0444 10.9126 27.8468C11.575 28.6492 11.9373 29.6572 11.9375 30.6976ZM24.4791 6.51014C24.4791 7.71235 24.0061 8.80347 23.2357 9.60793C22.5163 10.3596 21.5576 10.8373 20.5243 10.9591C19.491 11.0809 18.4475 10.8391 17.573 10.2754C16.6985 9.71162 16.0476 8.86102 15.7319 7.86959C15.4162 6.87817 15.4556 5.80778 15.8432 4.84221C16.2307 3.87663 16.9424 3.07609 17.8559 2.57804C18.7694 2.07999 19.8278 1.9155 20.8494 2.11281C21.8709 2.31011 22.792 2.85691 23.4543 3.65932C24.1167 4.46172 24.479 5.46968 24.4791 6.51014Z" stroke="#00AC4F" stroke-width="4" stroke-linecap="round" stroke-linejoin="round"/>
</g>
</svg>
