<svg width="24" height="24" viewBox="0 0 24 24" fill="none" xmlns="http://www.w3.org/2000/svg">
<path d="M14.75 22.5H8.75C3.32 22.5 1 20.18 1 14.75V8.75C1 3.32 3.32 1 8.75 1H14.75C20.18 1 22.5 3.32 22.5 8.75V14.75C22.5 20.18 20.18 22.5 14.75 22.5ZM8.75 2.5C4.14 2.5 2.5 4.14 2.5 8.75V14.75C2.5 19.36 4.14 21 8.75 21H14.75C19.36 21 21 19.36 21 14.75V8.75C21 4.14 19.36 2.5 14.75 2.5H8.75Z" fill="#9197B3"/>
<path d="M8.0625 17.125H5.875C5.53125 17.125 5.25 16.8438 5.25 16.5V10.25C5.25 9.90625 5.53125 9.625 5.875 9.625H8.0625C8.40625 9.625 8.6875 9.90625 8.6875 10.25V16.5C8.6875 16.8438 8.40625 17.125 8.0625 17.125ZM12.5938 5.875H10.4062C10.0625 5.875 9.78125 6.15625 9.78125 6.5V16.5C9.78125 16.8438 10.0625 17.125 10.4062 17.125H12.5938C12.9375 17.125 13.2188 16.8438 13.2188 16.5V6.5C13.2188 6.15625 12.9375 5.875 12.5938 5.875ZM17.125 10.875H14.9375C14.5938 10.875 14.3125 11.1562 14.3125 11.5V16.5C14.3125 16.8438 14.5938 17.125 14.9375 17.125H17.125C17.4688 17.125 17.75 16.8438 17.75 16.5V11.5C17.75 11.1562 17.4688 10.875 17.125 10.875Z" fill="#9197B3"/>
</svg>
