<svg width="41" height="40" viewBox="0 0 41 40" fill="none" xmlns="http://www.w3.org/2000/svg">
<g id="Social" clip-path="url(#clip0_1197_2023)">
<g id="Vector">
<path d="M11.7814 31.092C18.0116 31.092 23.0624 25.9974 23.0624 19.7128C23.0624 13.4283 18.012 8.33333 11.7814 8.33333C5.55083 8.33333 0.5 13.4295 0.5 19.7128C0.5 25.9962 5.55122 31.092 11.7814 31.092Z" fill="black"/>
<path d="M35.438 19.7129C35.438 25.6284 32.9126 30.4258 29.7973 30.4258C26.682 30.4258 24.1566 25.6284 24.1566 19.7129C24.1566 13.7973 26.6817 8.99994 29.7969 8.99994C32.9122 8.99994 35.438 13.7958 35.438 19.7129Z" fill="black"/>
<path d="M40.5 19.7128C40.5 25.0117 39.6119 29.3099 38.5161 29.3099C37.4203 29.3099 36.5327 25.0129 36.5327 19.7128C36.5327 14.4128 37.4207 10.1158 38.5161 10.1158C39.6115 10.1158 40.5 14.4124 40.5 19.7128Z" fill="black"/>
</g>
</g>
<defs>
<clipPath id="clip0_1197_2023">
<rect width="40" height="40" fill="white" transform="translate(0.5)"/>
</clipPath>
</defs>
</svg>
