<svg width="21" height="21" viewBox="0 0 21 21" fill="none" xmlns="http://www.w3.org/2000/svg">
<g id="Icon">
<path id="Vector" d="M16.4249 13.2167L14.3083 12.975C14.0594 12.9458 13.8071 12.9733 13.5704 13.0556C13.3337 13.1379 13.1187 13.2727 12.9416 13.45L11.4083 14.9833C9.04259 13.7802 7.11975 11.8573 5.9166 9.49167L7.45827 7.95C7.8166 7.59167 7.9916 7.09167 7.93327 6.58333L7.6916 4.48333C7.64436 4.07681 7.44926 3.70186 7.14347 3.42987C6.83767 3.15788 6.44253 3.00785 6.03327 3.00833H4.5916C3.64994 3.00833 2.8666 3.79167 2.92494 4.73333C3.3666 11.85 9.05827 17.5333 16.1666 17.975C17.1083 18.0333 17.8916 17.25 17.8916 16.3083V14.8667C17.8999 14.025 17.2666 13.3167 16.4249 13.2167Z" fill="#9197B3"/>
</g>
</svg>
