<svg width="24" height="24" viewBox="0 0 24 24" fill="none" xmlns="http://www.w3.org/2000/svg">
<g id="icon-park-outline:circular-connection">
<g id="Group">
<path id="Vector" d="M8.55586 16.8785C9.48028 17.6066 10.6233 18.0018 11.8001 18C13.0245 18 14.1513 17.5811 15.0443 16.8785M10.2552 7.7258C8.10816 8.38545 6.54755 10.3842 6.54755 12.7475C6.54755 13.3423 6.64642 13.9139 6.82871 14.4469M13.3449 7.7258C15.492 8.38545 17.0526 10.3842 17.0526 12.7475C17.0526 13.3423 16.9537 13.9139 16.7714 14.4469" stroke="#9197B3" stroke-width="1.5"/>
<path id="Vector_2" d="M17.6705 15.8372C17.6705 16.2518 17.5073 16.6282 17.2416 16.9056C16.9935 17.1649 16.6628 17.3296 16.3065 17.3716C15.9501 17.4136 15.5902 17.3303 15.2886 17.1358C14.987 16.9414 14.7624 16.648 14.6536 16.3061C14.5447 15.9641 14.5583 15.595 14.6919 15.2619C14.8256 14.9289 15.0711 14.6528 15.3861 14.481C15.7012 14.3093 16.0662 14.2525 16.4186 14.3206C16.7709 14.3886 17.0886 14.5772 17.317 14.854C17.5455 15.1307 17.6704 15.4784 17.6705 15.8372ZM9.01928 15.8372C9.01928 16.2518 8.85614 16.6282 8.59043 16.9056C8.34229 17.1649 8.01164 17.3296 7.65526 17.3716C7.29887 17.4136 6.93898 17.3303 6.63737 17.1358C6.33576 16.9414 6.11124 16.648 6.00238 16.3061C5.89351 15.9641 5.90707 15.595 6.04075 15.2619C6.17442 14.9289 6.41986 14.6528 6.73493 14.481C7.05 14.3093 7.41504 14.2525 7.76738 14.3206C8.11972 14.3886 8.43738 14.5772 8.66582 14.854C8.89426 15.1307 9.01923 15.4784 9.01928 15.8372ZM13.3449 7.49498C13.3449 7.90962 13.1817 8.28595 12.916 8.56341C12.6679 8.82264 12.3372 8.98741 11.9809 9.02941C11.6245 9.07142 11.2646 8.98804 10.963 8.79361C10.6614 8.59917 10.4368 8.3058 10.328 7.96386C10.2191 7.62192 10.2327 7.25274 10.3663 6.91972C10.5 6.58669 10.7455 6.31059 11.0605 6.13881C11.3756 5.96703 11.7406 5.9103 12.093 5.97835C12.4453 6.0464 12.763 6.23499 12.9914 6.51174C13.2199 6.78849 13.3448 7.13613 13.3449 7.49498Z" stroke="#9197B3" stroke-width="1.5" stroke-linecap="round" stroke-linejoin="round"/>
<path id="Vector_3" d="M15.0698 23H8.93023C3.37395 23 1 20.626 1 15.0698V8.93023C1 3.37395 3.37395 1 8.93023 1H15.0698C20.626 1 23 3.37395 23 8.93023V15.0698C23 20.626 20.626 23 15.0698 23ZM8.93023 2.53488C4.21302 2.53488 2.53488 4.21302 2.53488 8.93023V15.0698C2.53488 19.787 4.21302 21.4651 8.93023 21.4651H15.0698C19.787 21.4651 21.4651 19.787 21.4651 15.0698V8.93023C21.4651 4.21302 19.787 2.53488 15.0698 2.53488H8.93023Z" fill="#9197B3"/>
</g>
</g>
</svg>
