<svg width="40" height="39" viewBox="0 0 40 39" fill="none" xmlns="http://www.w3.org/2000/svg">
<g id="&#240;&#159;&#166;&#134; icon &#34;bullhorn&#34;">
<path id="Vector" d="M33.9417 12.4009C33.4244 11.2283 32.3349 10.4989 31.147 10.3661L27.8003 2.77994C27.6087 2.34572 26.7531 1.34425 25.5115 1.89201C25.1581 2.04788 24.8594 2.32077 24.6736 2.67779L21.9434 7.91533C20.5713 10.5446 18.3222 12.6519 15.6097 13.8486L6.08168 18.052C4.32743 18.8259 3.5329 20.8749 4.30681 22.6291L6.40851 27.3931C7.18242 29.1474 9.23141 29.9419 10.9857 29.168L12.658 28.4302C12.8185 28.9807 13.0127 29.527 13.2504 30.066C14.1211 32.0395 15.4033 33.7017 16.9476 35.0118C17.4392 35.4287 18.1409 35.4967 18.7305 35.2366L22.4166 33.6104C23.7093 33.0401 23.8322 31.2169 22.595 30.5344C21.31 29.8255 20.2386 28.707 19.6019 27.2639C19.3587 26.7126 19.2053 26.1471 19.1202 25.5793L20.5137 24.9646C23.2262 23.7679 26.2989 23.5275 29.1653 24.2869L34.8743 25.8013C35.2551 25.9024 35.6589 25.871 36.0195 25.7123C37.2562 25.1667 37.1088 23.8813 36.9069 23.4237L33.5602 15.8375C34.2632 14.8699 34.4591 13.5735 33.9417 12.4009ZM32.2738 21.5206L30.0548 20.9321C26.4293 19.9705 22.5426 20.2754 19.1125 21.7886L17.0108 17.0246C20.4409 15.5114 23.2864 12.8463 25.0204 9.52026L26.0816 7.48462L32.2738 21.5206Z" fill="#DA001A"/>
</g>
</svg>
