<svg width="24" height="24" viewBox="0 0 24 24" fill="none" xmlns="http://www.w3.org/2000/svg">
<path d="M15 22.75H9C3.57 22.75 1.25 20.43 1.25 15V9C1.25 3.57 3.57 1.25 9 1.25H15C20.43 1.25 22.75 3.57 22.75 9V15C22.75 20.43 20.43 22.75 15 22.75ZM9 2.75C4.39 2.75 2.75 4.39 2.75 9V15C2.75 19.61 4.39 21.25 9 21.25H15C19.61 21.25 21.25 19.61 21.25 15V9C21.25 4.39 19.61 2.75 15 2.75H9Z" fill="#9197B3"/>
<path d="M16.5975 9.21473C16.4144 8.79975 16.0149 8.54783 15.5739 8.50993L14.3896 5.82532C14.3218 5.67166 14.0115 5.32059 13.545 5.52637C13.4123 5.58493 13.2989 5.68487 13.2269 5.81397L12.1688 7.70799C11.6371 8.6588 10.7832 9.43013 9.76418 9.87967L6.1848 11.4588C5.52578 11.7495 5.21363 12.4883 5.4875 13.1091L6.23126 14.7949C6.50513 15.4157 7.2612 15.6832 7.92022 15.3925L8.54847 15.1153C8.60375 15.3108 8.67161 15.5045 8.75575 15.6952C9.06386 16.3936 9.52764 16.9774 10.0918 17.4333C10.2713 17.5783 10.5319 17.597 10.7534 17.4993L12.1381 16.8884C12.6238 16.6741 12.6842 16.0215 12.2293 15.7875C11.7568 15.5444 11.3671 15.1533 11.1418 14.6426C11.0557 14.4475 11.0032 14.2466 10.9761 14.0444L11.4996 13.8134C12.5186 13.3639 13.6639 13.2532 14.7245 13.5016L16.8367 13.9969C16.9776 14.03 17.1281 14.0155 17.2636 13.9559C17.7282 13.7509 17.6837 13.2927 17.6122 13.1308L16.4279 10.4461C16.6973 10.0946 16.7806 9.6297 16.5975 9.21473ZM15.9035 12.4878L15.0825 12.2953C13.7411 11.9808 12.2923 12.121 11.0038 12.6895L10.26 11.0036C11.5486 10.4351 12.6289 9.45966 13.3009 8.25689L13.7122 7.52075L15.9035 12.4878Z" fill="#9197B3"/>
</svg>
