<svg width="24" height="24" viewBox="0 0 24 24" fill="none" xmlns="http://www.w3.org/2000/svg">
<path d="M14.75 22.5H8.75C3.32 22.5 1 20.18 1 14.75V8.75C1 3.32 3.32 1 8.75 1H14.75C20.18 1 22.5 3.32 22.5 8.75V14.75C22.5 20.18 20.18 22.5 14.75 22.5ZM8.75 2.5C4.14 2.5 2.5 4.14 2.5 8.75V14.75C2.5 19.36 4.14 21 8.75 21H14.75C19.36 21 21 19.36 21 14.75V8.75C21 4.14 19.36 2.5 14.75 2.5H8.75Z" fill="#9197B3"/>
<path d="M10.002 8C10.002 7.4701 10.2125 6.9619 10.5872 6.5872C10.9619 6.2125 11.4701 6.002 12 6.002C12.5299 6.002 13.0381 6.2125 13.4128 6.5872C13.7875 6.9619 13.998 7.4701 13.998 8C13.998 8.5299 13.7875 9.0381 13.4128 9.4128C13.0381 9.7875 12.5299 9.998 12 9.998C11.4701 9.998 10.9619 9.7875 10.5872 9.4128C10.2125 9.0381 10.002 8.5299 10.002 8ZM12 7.002C11.8689 7.002 11.7392 7.02781 11.6181 7.07797C11.497 7.12812 11.387 7.20163 11.2943 7.29431C11.2016 7.38698 11.1281 7.497 11.078 7.61808C11.0278 7.73916 11.002 7.86894 11.002 8C11.002 8.13106 11.0278 8.26083 11.078 8.38192C11.1281 8.503 11.2016 8.61302 11.2943 8.70569C11.387 8.79836 11.497 8.87188 11.6181 8.92203C11.7392 8.97218 11.8689 8.998 12 8.998C12.2647 8.998 12.5185 8.89285 12.7057 8.70569C12.8929 8.51853 12.998 8.26468 12.998 8C12.998 7.73531 12.8929 7.48147 12.7057 7.29431C12.5185 7.10714 12.2647 7.002 12 7.002ZM15 8.5C15 8.30302 15.0388 8.10796 15.1142 7.92597C15.1896 7.74399 15.3001 7.57863 15.4393 7.43934C15.5786 7.30005 15.744 7.18956 15.926 7.11418C16.108 7.0388 16.303 7 16.5 7C16.697 7 16.892 7.0388 17.074 7.11418C17.256 7.18956 17.4214 7.30005 17.5607 7.43934C17.6999 7.57863 17.8104 7.74399 17.8858 7.92597C17.9612 8.10796 18 8.30302 18 8.5C18 8.89782 17.842 9.27935 17.5607 9.56066C17.2794 9.84196 16.8978 10 16.5 10C16.1022 10 15.7206 9.84196 15.4393 9.56066C15.158 9.27935 15 8.89782 15 8.5ZM16.5 8C16.3674 8 16.2402 8.05268 16.1464 8.14645C16.0527 8.24021 16 8.36739 16 8.5C16 8.63261 16.0527 8.75978 16.1464 8.85355C16.2402 8.94732 16.3674 9 16.5 9C16.6326 9 16.7598 8.94732 16.8536 8.85355C16.9473 8.75978 17 8.63261 17 8.5C17 8.36739 16.9473 8.24021 16.8536 8.14645C16.7598 8.05268 16.6326 8 16.5 8ZM7.5 7C7.10218 7 6.72064 7.15803 6.43934 7.43934C6.15804 7.72064 6 8.10217 6 8.5C6 8.89782 6.15804 9.27935 6.43934 9.56066C6.72064 9.84196 7.10218 10 7.5 10C7.89783 10 8.27936 9.84196 8.56066 9.56066C8.84197 9.27935 9 8.89782 9 8.5C9 8.10217 8.84197 7.72064 8.56066 7.43934C8.27936 7.15803 7.89783 7 7.5 7ZM7 8.5C7 8.36739 7.05268 8.24021 7.14645 8.14645C7.24022 8.05268 7.36739 8 7.5 8C7.63261 8 7.75979 8.05268 7.85355 8.14645C7.94732 8.24021 8 8.36739 8 8.5C8 8.63261 7.94732 8.75978 7.85355 8.85355C7.75979 8.94732 7.63261 9 7.5 9C7.36739 9 7.24022 8.94732 7.14645 8.85355C7.05268 8.75978 7 8.63261 7 8.5ZM8.268 11C8.09201 11.3038 7.99954 11.6489 8 12H6V14.5C5.99992 14.7487 6.0617 14.9936 6.17977 15.2125C6.29784 15.4314 6.4685 15.6176 6.67639 15.7541C6.88428 15.8907 7.12286 15.9735 7.37068 15.9949C7.61849 16.0163 7.86774 15.9758 8.096 15.877C8.17 16.208 8.286 16.524 8.436 16.819C8.05646 16.9722 7.64511 17.03 7.23806 16.9871C6.831 16.9442 6.44071 16.802 6.10144 16.573C5.76218 16.3441 5.48432 16.0353 5.29227 15.6738C5.10023 15.3124 4.99986 14.9093 5 14.5V12C5 11.7348 5.10536 11.4804 5.29289 11.2929C5.48043 11.1054 5.73478 11 6 11H8.268ZM15.564 16.819C15.9435 16.9722 16.3549 17.03 16.7619 16.9871C17.169 16.9442 17.5593 16.802 17.8986 16.573C18.2378 16.3441 18.5157 16.0353 18.7077 15.6738C18.8998 15.3124 19.0001 14.9093 19 14.5V12C19 11.7348 18.8946 11.4804 18.7071 11.2929C18.5196 11.1054 18.2652 11 18 11H15.732C15.902 11.294 16 11.635 16 12H18V14.5C18.0001 14.7487 17.9383 14.9936 17.8202 15.2125C17.7022 15.4314 17.5315 15.6176 17.3236 15.7541C17.1157 15.8907 16.8771 15.9735 16.6293 15.9949C16.3815 16.0163 16.1323 15.9758 15.904 15.877C15.829 16.208 15.714 16.524 15.564 16.819ZM10 10.999C9.73478 10.999 9.48043 11.1044 9.29289 11.2919C9.10536 11.4794 9 11.7338 9 11.999V15C9 15.7956 9.31607 16.5587 9.87868 17.1213C10.4413 17.6839 11.2044 18 12 18C12.7956 18 13.5587 17.6839 14.1213 17.1213C14.6839 16.5587 15 15.7956 15 15V12C15 11.7348 14.8946 11.4804 14.7071 11.2929C14.5196 11.1054 14.2652 11 14 11H10V10.999ZM10 11.999H14V15C14 15.5304 13.7893 16.0391 13.4142 16.4142C13.0391 16.7893 12.5304 17 12 17C11.4696 17 10.9609 16.7893 10.5858 16.4142C10.2107 16.0391 10 15.5304 10 15V12V11.999Z" fill="#9197B3"/>
</svg>
