<svg width="38" height="25" viewBox="0 0 38 25" fill="none" xmlns="http://www.w3.org/2000/svg">
<g id="&#240;&#159;&#166;&#134; icon &#34;Eye&#34;">
<path id="Vector" d="M19 5.48903C18.3365 5.4994 17.6779 5.6048 17.0444 5.80202C17.3375 6.3174 17.4935 6.8993 17.4976 7.49216C17.4976 7.95251 17.4069 8.40835 17.2308 8.83365C17.0546 9.25896 16.7964 9.6454 16.4709 9.97091C16.1454 10.2964 15.7589 10.5546 15.3336 10.7308C14.9083 10.907 14.4525 10.9976 13.9921 10.9976C13.3993 10.9935 12.8174 10.8375 12.302 10.5444C11.8954 11.9546 11.9428 13.457 12.4374 14.8388C12.9321 16.2206 13.849 17.4117 15.0583 18.2434C16.2675 19.0751 17.7078 19.5052 19.1751 19.4729C20.6424 19.4406 22.0623 18.9474 23.2337 18.0633C24.4052 17.1791 25.2687 15.9488 25.7021 14.5466C26.1354 13.1443 26.1166 11.6413 25.6483 10.2504C25.18 8.85947 24.2859 7.65115 23.0926 6.79661C21.8994 5.94206 20.4676 5.4846 19 5.48903ZM36.8103 11.5861C33.4156 4.96258 26.6951 0.481201 19 0.481201C11.3048 0.481201 4.58241 4.96571 1.18961 11.5867C1.04641 11.87 0.971802 12.1829 0.971802 12.5003C0.971802 12.8177 1.04641 13.1307 1.18961 13.4139C4.58429 20.0374 11.3048 24.5188 19 24.5188C26.6951 24.5188 33.4175 20.0343 36.8103 13.4133C36.9535 13.13 37.0281 12.8171 37.0281 12.4997C37.0281 12.1823 36.9535 11.8693 36.8103 11.5861ZM19 21.5141C12.8247 21.5141 7.16332 18.0712 4.10604 12.5C7.16332 6.92878 12.824 3.4859 19 3.4859C25.1759 3.4859 30.8366 6.92878 33.8939 12.5C30.8372 18.0712 25.1759 21.5141 19 21.5141Z" fill="#0F5FC2"/>
</g>
</svg>
