<svg width="24" height="24" viewBox="0 0 24 24" fill="none" xmlns="http://www.w3.org/2000/svg">
<path d="M15 22.75H9C3.57 22.75 1.25 20.43 1.25 15V9C1.25 3.57 3.57 1.25 9 1.25H15C20.43 1.25 22.75 3.57 22.75 9V15C22.75 20.43 20.43 22.75 15 22.75ZM9 2.75C4.39 2.75 2.75 4.39 2.75 9V15C2.75 19.61 4.39 21.25 9 21.25H15C19.61 21.25 21.25 19.61 21.25 15V9C21.25 4.39 19.61 2.75 15 2.75H9Z" fill="#9197B3"/>
<path d="M12.3891 9.77475C12.1539 9.77842 11.9206 9.81578 11.696 9.88567C11.7999 10.0683 11.8552 10.2745 11.8567 10.4846C11.8567 10.6478 11.8245 10.8093 11.7621 10.9601C11.6997 11.1108 11.6081 11.2477 11.4928 11.3631C11.3774 11.4785 11.2405 11.57 11.0897 11.6324C10.939 11.6948 10.7775 11.727 10.6143 11.727C10.4042 11.7255 10.198 11.6702 10.0154 11.5664C9.87125 12.0661 9.88804 12.5986 10.0634 13.0883C10.2387 13.5779 10.5636 14.0001 10.9922 14.2948C11.4207 14.5896 11.9311 14.742 12.4511 14.7306C12.9711 14.7191 13.4744 14.5443 13.8895 14.231C14.3047 13.9176 14.6107 13.4816 14.7643 12.9847C14.9178 12.4877 14.9112 11.9551 14.7452 11.4621C14.5792 10.9692 14.2624 10.541 13.8395 10.2381C13.4166 9.9353 12.9092 9.77318 12.3891 9.77475ZM18.701 11.9355C17.4979 9.58818 15.1162 8 12.3891 8C9.66196 8 7.27958 9.58929 6.07719 11.9357C6.02644 12.0361 6 12.147 6 12.2595C6 12.372 6.02644 12.4829 6.07719 12.5833C7.28025 14.9306 9.66196 16.5188 12.3891 16.5188C15.1162 16.5188 17.4986 14.9295 18.701 12.5831C18.7517 12.4827 18.7782 12.3718 18.7782 12.2593C18.7782 12.1468 18.7517 12.0359 18.701 11.9355ZM12.3891 15.4539C10.2006 15.4539 8.19424 14.2338 7.11076 12.2594C8.19424 10.285 10.2004 9.06485 12.3891 9.06485C14.5778 9.06485 16.5839 10.285 17.6674 12.2594C16.5841 14.2338 14.5778 15.4539 12.3891 15.4539Z" fill="#9197B3"/>
</svg>
