<svg width="41" height="40" viewBox="0 0 41 40" fill="none" xmlns="http://www.w3.org/2000/svg">
<g id="Social" clip-path="url(#clip0_1197_492)">
<path id="Vector" d="M39.7032 10.3091C39.477 9.45811 39.0314 8.68146 38.4107 8.05685C37.7901 7.43224 37.0163 6.98159 36.1668 6.75C33.0396 5.90909 20.5396 5.90909 20.5396 5.90909C20.5396 5.90909 8.03955 5.90909 4.91228 6.75C4.06277 6.98159 3.28898 7.43224 2.66836 8.05685C2.04774 8.68146 1.60206 9.45811 1.37591 10.3091C0.539551 13.45 0.539551 20 0.539551 20C0.539551 20 0.539551 26.55 1.37591 29.6909C1.60206 30.5419 2.04774 31.3185 2.66836 31.9431C3.28898 32.5677 4.06277 33.0184 4.91228 33.25C8.03955 34.0909 20.5396 34.0909 20.5396 34.0909C20.5396 34.0909 33.0396 34.0909 36.1668 33.25C37.0163 33.0184 37.7901 32.5677 38.4107 31.9431C39.0314 31.3185 39.477 30.5419 39.7032 29.6909C40.5396 26.55 40.5396 20 40.5396 20C40.5396 20 40.5396 13.45 39.7032 10.3091Z" fill="#FF0302"/>
<path id="Vector_2" d="M16.4487 25.9478V14.0523L26.9033 20.0001L16.4487 25.9478Z" fill="#FEFEFE"/>
</g>
<defs>
<clipPath id="clip0_1197_492">
<rect width="40" height="40" fill="white" transform="translate(0.5)"/>
</clipPath>
</defs>
</svg>
